<?xml version="1.0" encoding="utf-8"?>
<!-- Svg Vector Icons : http://www.sfont.cn -->
<!DOCTYPE svg PUBLIC "-//W3C//DTD SVG 1.1//EN" "http://www.w3.org/Graphics/SVG/1.1/DTD/svg11.dtd">
<svg version="1.1" xmlns="http://www.w3.org/2000/svg" xmlns:xlink="http://www.w3.org/1999/xlink" x="0px" y="0px" viewBox="0 0 1000 1000" enable-background="new 0 0 1000 1000" xml:space="preserve">
<metadata> Svg Vector Icons : http://www.sfont.cn </metadata>
<g><path d="M678.2,700.5c0,13.4,8.9,22.3,22.3,22.3c13.4,0,22.3-8.9,22.3-22.3c0-13.4-8.9-22.3-22.3-22.3C687.1,678.2,678.2,687.1,678.2,700.5z M900.9,10H99.1C50.1,10,10,50.1,10,99.1v801.8c0,49,40.1,89.1,89.1,89.1h801.8c49,0,89.1-40.1,89.1-89.1V99.1C990,50.1,949.9,10,900.9,10z M945.5,900.9c0,24.5-20,44.5-44.5,44.5H99.1c-24.5,0-44.5-20-44.5-44.5V633.6h93.5c22.3,127,131.4,222.7,262.8,222.7c55.7,0,104.7-15.6,147-44.5h253.9V633.6h133.6V900.9z M678.2,277.3c-24.5,0-44.5,20-44.5,44.5c0,8.9,2.2,15.6,6.7,22.3L602.5,402c-49-49-115.8-80.2-191.5-80.2c-69,0-131.4,26.7-178.2,69V232.7h534.5v534.5H609.1c42.3-46.8,69-109.1,69-178.2c0-55.7-17.8-106.9-46.8-149.2l46.8-73.5c24.5,0,42.3-20,42.3-44.5C722.7,297.3,702.7,277.3,678.2,277.3z M410.9,366.4c66.8,0,124.7,29,167,75.7L477.7,593.5c0-2.2,0-2.2,0-4.5c0-37.9-29-66.8-66.8-66.8c-37.9,0-66.8,29-66.8,66.8c0,37.9,29,66.8,66.8,66.8c11.1,0,20-2.2,29-6.7l-26.7,40.1L402,678.2L370.8,765l24.5,17.8l17.8-15.6l53.5,11.1l-22.3-37.9l20-17.8l-26.7-17.8l13.4,8.9L604.7,480c17.8,31.2,29,69,29,109.1c0,122.5-100.2,222.7-222.7,222.7S188.2,711.6,188.2,589.1C188.2,466.6,288.4,366.4,410.9,366.4z M433.2,589.1c0,13.4-8.9,22.3-22.3,22.3c-13.4,0-22.3-8.9-22.3-22.3c0-13.4,8.9-22.3,22.3-22.3C424.3,566.8,433.2,575.7,433.2,589.1z M945.5,589.1H811.8V188.2H188.2v253.9c-29,42.3-44.5,93.5-44.5,147H54.5v-490c0-24.5,20-44.5,44.5-44.5h801.8c24.5,0,44.5,20,44.5,44.5V589.1z" fill="#ffffff"/></g>
</svg>