<?xml version="1.0" encoding="utf-8"?>
<!-- Svg Vector Icons : http://www.sfont.cn -->
<!DOCTYPE svg PUBLIC "-//W3C//DTD SVG 1.1//EN" "http://www.w3.org/Graphics/SVG/1.1/DTD/svg11.dtd">
<svg version="1.1" xmlns="http://www.w3.org/2000/svg" xmlns:xlink="http://www.w3.org/1999/xlink" x="0px" y="0px" viewBox="0 0 1000 1000" enable-background="new 0 0 1000 1000" xml:space="preserve">
<metadata> Svg Vector Icons : http://www.sfont.cn </metadata>
<g><path d="M669.6,660.2c0,46.8,38,84.8,84.8,84.8c46.8,0,84.8-38,84.8-84.8c0-46.8-38-84.8-84.8-84.8C707.6,575.4,669.6,613.4,669.6,660.2z M613.1,537.7c41.6,0,75.4-33.8,75.4-75.4c0-41.6-33.8-75.4-75.4-75.4c-41.6,0-75.4,33.8-75.4,75.4C537.7,503.9,571.4,537.7,613.1,537.7z M669.6,349.2c41.6,0,75.4-33.8,75.4-75.4c0-41.6-33.8-75.4-75.4-75.4s-75.4,33.8-75.4,75.4C594.2,315.5,628,349.2,669.6,349.2z M905.2,292.7c36.4,0,66-29.5,66-66s-29.5-66-66-66c-36.4,0-66,29.5-66,66C839.2,263.2,868.8,292.7,905.2,292.7z M858.1,518.8c41.6,0,75.4-33.8,75.4-75.4s-33.8-75.4-75.4-75.4c-41.6,0-75.4,33.8-75.4,75.4S816.4,518.8,858.1,518.8z M226.7,782.7c36.4,0,66-29.5,66-66c0-36.4-29.5-66-66-66c-36.4,0-66,29.5-66,66C160.8,753.2,190.3,782.7,226.7,782.7z M349.2,613.1c52,0,94.2-42.2,94.2-94.2c0-52-42.2-94.2-94.2-94.2c-52,0-94.2,42.2-94.2,94.2C255,570.9,297.2,613.1,349.2,613.1z M368.1,792.1c0,36.4,29.5,66,66,66s66-29.5,66-66c0-36.4-29.5-66-66-66S368.1,755.7,368.1,792.1z M547.1,726.2c36.4,0,66-29.5,66-66c0-36.4-29.5-66-66-66c-36.4,0-66,29.5-66,66C481.2,696.6,510.7,726.2,547.1,726.2z M123.1,895.8V10H10v980h980v-94.2L123.1,895.8L123.1,895.8z" fill="#ffffff"/></g>
</svg>