<?xml version="1.0" encoding="utf-8"?>
<!-- Svg Vector Icons : http://www.sfont.cn -->
<!DOCTYPE svg PUBLIC "-//W3C//DTD SVG 1.1//EN" "http://www.w3.org/Graphics/SVG/1.1/DTD/svg11.dtd">
<svg version="1.1" xmlns="http://www.w3.org/2000/svg" xmlns:xlink="http://www.w3.org/1999/xlink" x="0px" y="0px" viewBox="0 0 1000 1000" enable-background="new 0 0 1000 1000" xml:space="preserve">
<metadata> Svg Vector Icons : http://www.sfont.cn </metadata>
<g><g transform="translate(0.000000,511.000000) scale(0.100000,-0.100000)"><path d="M4864.4,4010.4c-586.4-98.1-911.2-761.6-633.1-1285c86.4-161.2,250-320.1,408.9-394.8l109.8-51.4l-880.8-878.4L2986.1,520l-981.2,992.9c-841.1,852.7-974.2,995.3-939.2,1016.3c91.1,51.4,250,214.9,294.4,303.7c30.4,58.4,53.7,156.5,60.7,259.3c9.4,142.5,2.3,186.9-46.7,294.4C1166.1,3842.2,598.4,3931,269,3564.2c-301.4-336.4-184.6-859.8,231.3-1049c53.7-23.4,112.1-44.4,133.2-44.4c49.1,0,32.7,88.8,210.3-1233.6l147.2-1084L782.9-262.7C584.4-659.8,577.3-680.8,612.4-734.6c18.7-28,161.2-193.9,313.1-362.1l278-310.7l42-308.4c23.4-168.2,53.7-322.4,67.8-338.8c18.7-25.7,689.2-30.4,3700.7-30.4c3527.8,0,3677.3,2.4,3698.4,42.1c11.7,23.4,39.7,175.2,63.1,338.8l39.7,294.4l278,310.7c154.2,170.5,296.7,334.1,317.7,364.5c32.7,51.4,25.7,74.8-172.9,478.9l-210.3,425.2l156.5,1140.1c84.1,626.1,158.9,1142.5,163.5,1147.1c4.7,2.3,58.4,23.4,116.8,44.4c324.8,121.5,507,483.6,408.9,815.4c-49.1,170.5-203.2,343.4-369.1,415.8c-443.9,193.9-929.8-123.8-929.8-605.1c0-243,135.5-474.3,341.1-581.7l74.8-39.7l-976.6-992.9L7034.8,520l-880.8,878.4l-880.8,880.8l133.1,65.4c177.6,86.4,366.8,292,436.9,469.6c72.4,189.2,70.1,457.9-2.3,649.5c-74.8,191.6-308.4,427.5-490.6,495.3C5186.9,4019.8,5023.3,4036.1,4864.4,4010.4z M5334,3702.1c212.6-126.2,317.7-313.1,320.1-567.7c0-385.5-296.7-661.2-684.5-635.5c-238.3,16.3-439.2,147.2-542,357.4c-65.4,130.8-65.4,429.9,0,560.7c63.1,128.5,224.3,280.4,345.8,324.7C4927.5,3800.2,5200.9,3779.1,5334,3702.1z M927.8,3519.8c142.5-53.7,264-233.6,264-394.8c0-317.7-364.5-525.7-637.8-366.8c-119.2,70.1-165.9,133.2-203.3,268.7c-46.7,179.9,42.1,385.5,205.6,471.9C652.1,3547.9,825,3559.5,927.8,3519.8z M9438.9,3498.8c165.9-84.1,257-289.7,210.3-471.9c-37.4-135.5-84.1-198.6-203.3-268.7c-210.3-123.8-492.9-32.7-593.4,189.2c-72.4,161.2-44.4,345.8,79.4,478.9C9046.4,3550.2,9273,3582.9,9438.9,3498.8z M2993.1,228c42.1,0,301.4,245.3,1037.3,981.2l981.2,981.2l969.6-969.6c532.7-535,995.3-976.6,1025.6-985.9c46.7-11.7,179.9,112.1,1056,988.3c551.4,551.4,1002.3,990.6,1002.3,978.9c-2.3-14-126.2-927.5-275.7-2032.6l-275.7-2009.2l-3504.5-7l-3504.4-4.7l-264,1943.8c-144.9,1070-268.7,1988.2-275.7,2039.6c-9.3,91.1,14,70.1,981.2-904.2C2691.7,475.6,2951,228,2993.1,228z M1096-627.1c25.7-177.6,42.1-327.1,39.7-331.8c-4.7-2.3-70.1,63.1-142.5,147.2L857.7-657.5l88.8,184.6c49.1,102.8,93.5,182.2,98.1,177.6C1049.3-297.7,1072.6-447.2,1096-627.1z M9030.1-809.3c-74.8-86.5-137.9-151.9-142.5-147.2c-9.4,7,44.4,429.9,74.7,600.4l14,81.8l95.8-189.2l93.4-191.6L9030.1-809.3z" fill="#ffffff"/><path d="M4873.8,153.2c-268.7-327.1-551.4-714.9-551.4-759.3c0-63.1,591.1-841.1,656.5-859.8c23.4-9.3,58.4-4.7,79.4,4.7c65.4,37.4,642.5,810.7,640.1,857.4c0,28-140.2,229-308.4,446.2C5030.3,305.1,5009.3,316.7,4873.8,153.2z M5205.5-314.1c100.5-133.2,191.6-254.6,200.9-271c11.7-18.7-53.7-126.2-186.9-296.7c-112.1-147.2-205.6-268.7-210.3-268.7c-11.7,0-385.5,490.6-397.2,525.7c-7,18.7,21,77.1,63.1,133.2c210.3,271,327.1,415.8,336.4,415.8C5016.3-75.8,5102.7-183.2,5205.5-314.1z" fill="#ffffff"/><path d="M1306.3-2372.3c-56.1-30.4-133.2-100.5-172.9-154.2l-70.1-100.5l-7-404.2c-7-343.4-2.3-418.2,32.7-483.6c53.7-107.5,123.8-177.5,231.3-236l93.5-51.4h3597.9h3597.9l105.1,58.4c56.1,32.7,135.5,102.8,175.2,158.9l70.1,102.8l7,385.5c4.7,271,0,408.9-21,460.3c-49.1,121.5-135.5,219.6-240.7,268.7c-98.1,49.1-116.8,49.1-3698.3,49.1H1409.1L1306.3-2372.3z M8649.2-2620l77.1-67.8v-366.8v-366.8l-77.1-67.7l-74.8-67.8H5021c-3861.9,0-3647-7-3707.7,128.5c-18.7,37.4-28,184.6-28,387.8v329.4l79.4,79.4l79.4,79.4h3565.2h3565.2L8649.2-2620z" fill="#ffffff"/></g></g>
</svg>